<svg xmlns="http://www.w3.org/2000/svg" viewBox="0 0 256 256" role="img" aria-label="QR Menu placeholder  replace with qr-menu.png">
  <rect width="256" height="256" fill="#faf8f5"/>
  <rect x="16" y="16" width="56" height="56" fill="#1a1a1a"/>
  <rect x="88" y="16" width="16" height="16" fill="#1a1a1a"/>
  <rect x="120" y="16" width="16" height="16" fill="#1a1a1a"/>
  <rect x="152" y="16" width="16" height="16" fill="#1a1a1a"/>
  <rect x="184" y="16" width="56" height="56" fill="#1a1a1a"/>
  <rect x="16" y="88" width="16" height="16" fill="#1a1a1a"/>
  <rect x="48" y="88" width="16" height="16" fill="#1a1a1a"/>
  <rect x="88" y="88" width="80" height="80" fill="#c9a227" opacity="0.3"/>
  <rect x="184" y="88" width="16" height="16" fill="#1a1a1a"/>
  <rect x="216" y="88" width="16" height="16" fill="#1a1a1a"/>
  <rect x="16" y="184" width="56" height="56" fill="#1a1a1a"/>
  <rect x="88" y="184" width="16" height="16" fill="#1a1a1a"/>
  <rect x="120" y="216" width="16" height="16" fill="#1a1a1a"/>
  <rect x="184" y="184" width="56" height="56" fill="#1a1a1a"/>
  <text x="128" y="140" text-anchor="middle" font-family="system-ui,sans-serif" font-size="11" fill="#1a1a1a">Replace with</text>
  <text x="128" y="155" text-anchor="middle" font-family="system-ui,sans-serif" font-size="11" font-weight="600" fill="#c9a227">qr-menu.png</text>
</svg>
